<?xml version="1.0" standalone="no"?>
<!DOCTYPE svg PUBLIC "-//W3C//DTD SVG 20010904//EN"
 "http://www.w3.org/TR/2001/REC-SVG-20010904/DTD/svg10.dtd">
<svg version="1.0" xmlns="http://www.w3.org/2000/svg"
 width="700.000000pt" height="700.000000pt" viewBox="0 0 700.000000 700.000000"
 preserveAspectRatio="xMidYMid meet">
<metadata>
Created by potrace 1.14, written by Peter Selinger 2001-2017
</metadata>
<g transform="translate(0.000000,700.000000) scale(0.100000,-0.100000)"
fill="#000000" stroke="none">
<path d="M3775 5428 c-24 -14 -65 -59 -65 -73 -1 -31 -15 -34 -93 -21 -205 36
-380 -18 -528 -164 -81 -79 -178 -245 -218 -370 -28 -91 -41 -242 -26 -325 3
-16 8 -46 11 -65 15 -87 104 -295 171 -396 9 -14 14 -26 12 -27 -3 -3 -41 -11
-151 -32 -118 -24 -407 -23 -517 0 -9 2 -47 11 -86 20 -38 9 -86 20 -105 24
-19 4 -45 13 -57 19 -12 7 -31 12 -42 12 -12 0 -21 5 -21 10 0 6 -3 9 -7 8
-34 -7 -347 164 -402 219 -9 9 -36 29 -60 45 -38 24 -55 28 -115 28 -235 0
-456 -208 -591 -558 -36 -93 -80 -258 -91 -342 -3 -25 -8 -54 -11 -65 -13 -54
-11 -335 2 -410 18 -102 40 -173 63 -198 23 -27 74 -47 117 -47 20 0 46 -5 57
-11 51 -27 94 -14 236 74 183 112 217 131 301 161 103 37 121 35 205 -26 99
-73 174 -102 246 -95 98 9 152 47 268 189 67 83 89 95 150 82 20 -4 40 -8 43
-8 3 -1 48 -25 99 -55 108 -61 128 -66 179 -50 38 13 90 63 92 89 0 8 2 23 4
32 6 32 -18 89 -48 114 -52 44 -170 107 -253 136 -82 28 -179 38 -239 23 -87
-22 -156 -75 -250 -192 -31 -40 -63 -73 -69 -73 -7 0 -37 18 -67 41 -133 99
-239 120 -395 75 -90 -26 -177 -61 -215 -88 -15 -9 -37 -22 -50 -27 -13 -5
-62 -34 -109 -65 l-85 -55 -8 42 c-8 42 -3 257 7 332 47 326 210 632 365 686
28 10 35 9 54 -8 59 -54 360 -228 409 -237 7 -1 31 -10 53 -20 70 -31 243 -84
295 -91 16 -2 93 -15 125 -21 47 -9 177 -18 270 -18 137 0 235 10 362 35 29 6
56 11 60 11 24 1 86 43 102 68 l17 29 106 -142 c181 -243 259 -369 318 -515
45 -111 58 -264 30 -347 -14 -43 -20 -50 -65 -81 -39 -27 -205 -80 -313 -100
-102 -19 -259 -102 -327 -172 -64 -67 -114 -174 -130 -282 -4 -25 -8 -52 -10
-60 -1 -8 -6 -37 -10 -65 -4 -27 -16 -71 -27 -97 -18 -41 -28 -51 -85 -80 -85
-42 -118 -85 -117 -149 1 -76 46 -126 122 -136 32 -4 54 2 116 32 177 88 254
219 281 476 13 126 71 202 183 239 37 12 78 24 92 27 14 2 59 13 100 25 41 11
82 21 90 23 9 2 44 15 79 29 178 72 275 185 305 353 32 187 -1 367 -108 586
-50 104 -167 293 -190 309 -16 11 -1 10 85 -7 118 -22 200 -28 384 -29 243 -1
361 15 560 76 179 54 341 142 471 255 l61 53 73 -40 c185 -102 353 -238 446
-364 25 -33 50 -68 57 -76 30 -38 127 -258 127 -287 0 -2 -17 7 -38 21 -82 51
-196 100 -262 112 -14 3 -39 9 -55 13 -17 4 -63 7 -104 5 -123 -4 -215 -50
-275 -138 -20 -28 -36 -57 -36 -64 0 -16 -11 -15 -35 2 -55 38 -167 89 -258
118 -287 89 -503 7 -562 -213 -17 -63 -12 -149 10 -182 35 -54 116 -77 174
-48 46 22 69 56 81 121 13 73 29 83 108 76 126 -12 264 -74 364 -163 33 -30
71 -58 84 -63 20 -8 83 -12 163 -10 31 0 81 29 95 55 6 11 14 23 19 26 4 3 8
44 10 92 1 47 7 91 13 97 46 46 234 -9 367 -107 91 -67 150 -139 175 -212 18
-54 71 -117 109 -132 63 -24 139 0 173 56 22 35 23 43 17 178 -3 78 -8 151
-10 162 -3 11 -8 43 -11 70 -11 80 -52 235 -86 321 -35 88 -118 247 -131 252
-5 2 -9 8 -9 14 0 17 -108 147 -187 224 -40 40 -107 98 -150 130 -97 73 -271
179 -321 195 -20 6 -51 24 -67 40 -35 32 -78 44 -128 35 -35 -6 -55 -22 -113
-87 -109 -121 -262 -215 -437 -269 -169 -52 -269 -65 -482 -65 -257 0 -445 34
-670 122 -88 34 -92 37 -132 98 -102 154 -169 337 -165 455 3 113 55 240 144
351 91 115 195 146 362 107 98 -23 167 -48 261 -95 71 -35 167 -99 173 -115 2
-4 8 -8 14 -8 6 0 19 -11 30 -25 42 -54 111 -69 175 -39 57 28 88 97 72 159
-13 49 -131 160 -235 221 -23 14 -55 42 -70 62 -16 20 -36 43 -46 50 -10 8
-18 26 -18 43 0 39 -22 80 -60 113 -24 20 -42 26 -78 26 -26 0 -56 -6 -67 -12z"/>
</g>
</svg>
