<svg fill="none" height="400" viewBox="0 0 400 400" width="400" xmlns="http://www.w3.org/2000/svg"><g stroke="#000" stroke-linecap="round" stroke-linejoin="round" stroke-opacity=".9" stroke-width="16"><path d="m240.805 120.6c-9.276-9.449-24.19-16.238-37.435-17.904-9.959-1.258-18.151 2.863-24.111 10.87-35.049 47.099 42.563 78.893 36.802 125.343-2.5 20.175-28.016 15.695-39.974 24.306-16.132 11.613-1.337 30.671-22.844 39.007"/><path d="m188.813 175.393c31.924 14.21 82.438 13.944 105.347-15.458"/><path d="m301.003 164.039c32.309 16.533 46.517 40.565 46.517 76.616"/><path d="m346.15 239.287c-3.868-19.971-51.37-41.966-47.681-9.356"/><path d="m292.795 229.709c-8.492-10.757-42.413-23.818-42.413-1.358"/><path d="m173.767 180.354c-31.058 7.709-63.938-.671-87.5617-20.419"/><path d="m82.0986 159.935c-24.6645 5.463-35.2946 54.935-27.6716 76.616"/><path d="m154.61 222.173c-27.891-18.776-27.578 2.919-38.235 8.185-6.741 3.331-13.526-8.858-21.0268-8.185-13.2025 1.184-22.8558 9.448-33.7717 15.746"/><path d="m219.374 97c-1.537 5.366 2.146 6.087 4.909 9.577"/></g></svg>